<svg width="33" height="33" viewBox="0 0 33 33" fill="none" xmlns="http://www.w3.org/2000/svg">
<rect width="33" height="33" rx="10" fill="#1454FA"/>
<path d="M19.7566 21.9277V23.0132C19.7566 24.8118 18.2986 26.2698 16.5 26.2698C14.7015 26.2698 13.2434 24.8118 13.2434 23.0132V21.9277M19.7566 21.9277H13.2434M19.7566 21.9277H23.6542C24.0694 21.9277 24.278 21.9277 24.4462 21.871C24.7673 21.7627 25.0186 21.5105 25.127 21.1893C25.1839 21.0205 25.1839 20.8112 25.1839 20.3927C25.1839 20.2096 25.1837 20.118 25.1694 20.0307C25.1423 19.8657 25.0783 19.7093 24.9807 19.5734C24.9292 19.5017 24.8637 19.4362 24.7346 19.3071L24.3118 18.8842C24.1754 18.7478 24.0987 18.5627 24.0987 18.3698V14.329C24.0987 10.1324 20.6967 6.73034 16.5 6.73035C12.3034 6.73036 8.90133 10.1324 8.90133 14.329V18.3698C8.90133 18.5628 8.82452 18.7478 8.68809 18.8842L8.26528 19.307C8.13578 19.4365 8.07094 19.5016 8.01934 19.5735C7.92181 19.7093 7.85721 19.8657 7.83013 20.0307C7.8158 20.118 7.8158 20.2096 7.8158 20.3927C7.8158 20.8113 7.8158 21.0205 7.87274 21.1893C7.98107 21.5105 8.23351 21.7627 8.55468 21.871C8.72282 21.9277 8.93065 21.9277 9.34591 21.9277H13.2434M23.0333 5.65967C24.5305 6.78787 25.71 8.28457 26.4569 10.004M9.96728 5.65967C8.4701 6.78787 7.29062 8.28457 6.5437 10.004" stroke="#EEF2FF" stroke-width="2" stroke-linecap="round" stroke-linejoin="round"/>
</svg>
