<svg width="33" height="33" viewBox="0 0 33 33" fill="none" xmlns="http://www.w3.org/2000/svg">
<rect width="33" height="33" rx="10" fill="#1454FA"/>
<path d="M12.7562 22.4313H20.2436M12.7562 18.8725H20.2436M17.7483 5.82452C17.6291 5.82349 17.495 5.82349 17.3419 5.82349H11.7582C10.3604 5.82349 9.66098 5.82349 9.1271 6.08208C8.65749 6.30954 8.27595 6.67223 8.03667 7.11866C7.76465 7.62617 7.76465 8.29104 7.76465 9.6198V23.3806C7.76465 24.7093 7.76465 25.3734 8.03668 25.8809C8.27596 26.3273 8.65749 26.6906 9.1271 26.9181C9.66046 27.1764 10.359 27.1764 11.7541 27.1764L21.2458 27.1764C22.6409 27.1764 23.3384 27.1764 23.8718 26.9181C24.3414 26.6906 24.7242 26.3273 24.9635 25.8809C25.2352 25.3739 25.2352 24.7107 25.2352 23.3846V13.3275C25.2352 13.182 25.2351 13.0545 25.234 12.9411M17.7483 5.82452C18.1045 5.82761 18.329 5.84017 18.5442 5.88929C18.7989 5.94741 19.043 6.04326 19.2663 6.17334C19.5181 6.32002 19.7343 6.52554 20.1656 6.93562L24.0659 10.6433C24.4976 11.0536 24.7122 11.2582 24.8665 11.4977C25.0034 11.7099 25.1046 11.9414 25.1658 12.1835C25.2174 12.3881 25.2308 12.6025 25.234 12.9411M17.7483 5.82452L17.7478 9.1453C17.7478 10.4741 17.7478 11.1382 18.0199 11.6457C18.2591 12.0921 18.6407 12.4553 19.1103 12.6828C19.6437 12.9411 20.3422 12.9411 21.7373 12.9411H25.234" stroke="#EEF2FF" stroke-width="2" stroke-linecap="round" stroke-linejoin="round"/>
</svg>
