<svg width="33" height="33" viewBox="0 0 33 33" fill="none" xmlns="http://www.w3.org/2000/svg">
<rect width="33" height="33" rx="10" fill="#1454FA"/>
<path d="M20.1389 23.7798L18.1279 21.7687M17.7137 5.58187C17.5978 5.58081 17.4674 5.58081 17.3186 5.58081H11.8899C10.531 5.58081 9.85098 5.58081 9.33193 5.84528C8.87536 6.07792 8.50443 6.44885 8.27179 6.90542C8.00732 7.42447 8.00732 8.10445 8.00732 9.4634V23.5369C8.00732 24.8959 8.00732 25.575 8.27179 26.0941C8.50443 26.5506 8.87536 26.9222 9.33193 27.1548C9.85048 27.419 10.5296 27.419 11.886 27.419L21.114 27.419C22.4703 27.419 23.1485 27.419 23.667 27.1548C24.1236 26.9222 24.4958 26.5506 24.7284 26.094C24.9926 25.5755 24.9926 24.8973 24.9926 23.541V13.2554C24.9926 13.1065 24.9925 12.9761 24.9914 12.8602M17.7137 5.58187C18.06 5.58503 18.2782 5.59788 18.4875 5.64811C18.7351 5.70755 18.9724 5.80558 19.1895 5.93862C19.4343 6.08863 19.6444 6.29882 20.0638 6.71822L23.8558 10.5102C24.2755 10.9298 24.4841 11.1391 24.6342 11.384C24.7672 11.6011 24.8656 11.8378 24.9251 12.0854C24.9753 12.2946 24.9883 12.5139 24.9914 12.8602M17.7137 5.58187L17.7132 8.97812C17.7132 10.3371 17.7132 11.0163 17.9777 11.5353C18.2103 11.9919 18.5812 12.3634 19.0378 12.596C19.5564 12.8602 20.2355 12.8602 21.5918 12.8602H24.9914M15.8934 22.5661C14.2182 22.5661 12.8603 21.2081 12.8603 19.533C12.8603 17.8579 14.2182 16.4999 15.8934 16.4999C17.5685 16.4999 18.9264 17.8579 18.9264 19.533C18.9264 21.2081 17.5685 22.5661 15.8934 22.5661Z" stroke="white" stroke-width="2" stroke-linecap="round" stroke-linejoin="round"/>
</svg>
